<svg width="15" height="15" viewBox="0 0 15 15" fill="none" xmlns="http://www.w3.org/2000/svg">
<path d="M11.2637 14.5076C11.2634 14.5076 11.2631 14.5076 11.2628 14.5076C8.85755 14.5062 6.09928 13.2838 3.69513 11.1538C3.69105 11.1502 3.68697 11.1465 3.68296 11.1428C1.34394 8.95361 0.00156863 6.44181 0 4.25158C0 3.44515 0.453585 2.59701 1.27724 1.86297C1.84396 1.35799 2.6806 0.848389 3.27235 0.848389C4.1841 0.848389 4.42674 1.24103 4.79399 1.83537C4.88346 1.98022 4.98486 2.14437 5.11606 2.34292C5.18872 2.45245 5.28879 2.59135 5.39483 2.73837C6.06834 3.67278 6.4925 4.3262 6.2611 4.87266C6.07964 5.29793 5.59964 5.64692 5.13538 5.98438C4.96359 6.10933 4.71725 6.28834 4.60814 6.39656C4.6924 6.8232 5.30624 7.72642 6.37661 8.70107C7.44554 9.67445 8.43622 10.2333 8.906 10.3111C9.0244 10.2117 9.21953 9.98905 9.35581 9.83364C9.72789 9.40917 10.1126 8.97036 10.581 8.80609C10.6891 8.76815 10.8075 8.74883 10.9327 8.74883C11.4674 8.74883 12.0955 9.0996 12.9245 9.59509C13.086 9.69154 13.2385 9.78273 13.3597 9.84941C13.5769 9.96837 13.7571 10.0608 13.9162 10.1422C14.5688 10.4767 15 10.6976 15 11.5278C15 12.0664 14.4401 12.8282 13.8851 13.3442C13.0791 14.0937 12.1481 14.5069 11.2637 14.5076ZM4.57645 10.3403C6.71499 12.2329 9.2142 13.3634 11.263 13.3649C12.5017 13.3636 13.6802 11.9003 13.7452 11.5176C13.7447 11.4395 13.7397 11.3984 13.7361 11.379C13.6721 11.3283 13.4757 11.2277 13.3008 11.1381C13.1426 11.057 12.9455 10.956 12.7118 10.828C12.5695 10.7498 12.4074 10.6529 12.2359 10.5504C11.9108 10.3561 11.2572 9.96545 10.9789 9.90009C10.8073 10.0095 10.5062 10.3529 10.3365 10.5465C9.90603 11.0376 9.53426 11.4616 9.01003 11.4633C7.73278 11.4621 5.99229 9.96722 5.4892 9.5091C4.98611 9.05097 3.34451 7.46605 3.34319 6.30549C3.34319 5.82502 3.81089 5.48506 4.35245 5.09132C4.56402 4.93757 4.9388 4.66514 5.05959 4.50944C4.98737 4.25564 4.55894 3.66124 4.34573 3.3655C4.23311 3.20929 4.12675 3.0617 4.04136 2.93297C3.90018 2.71934 3.78931 2.53999 3.70027 2.39583C3.60189 2.23659 3.49133 2.05775 3.4358 1.99947C3.41441 1.99616 3.36929 1.99159 3.28339 1.99119C2.86288 2.04998 1.25484 3.1229 1.25484 4.25124C1.25628 6.11665 2.49789 8.39264 4.57645 10.3403Z" fill="white"/>
</svg>
